<svg width="47" height="47" viewBox="0 0 47 47" fill="none" xmlns="http://www.w3.org/2000/svg">
<path d="M21.2214 1.10879C21.9572 -0.369569 24.0664 -0.369569 24.8023 1.10879L31.1876 13.9368C31.3816 14.3264 31.6973 14.6421 32.0869 14.836L44.9149 21.2214C46.3932 21.9573 46.3932 24.0664 44.9149 24.8023L32.0869 31.1877C31.6973 31.3816 31.3816 31.6973 31.1876 32.0869L24.8023 44.9149C24.0664 46.3932 21.9572 46.3932 21.2214 44.9149L14.836 32.0869C14.6421 31.6973 14.3264 31.3816 13.9368 31.1877L1.10876 24.8023C-0.3696 24.0664 -0.3696 21.9573 1.10876 21.2214L13.9368 14.836C14.3264 14.6421 14.6421 14.3264 14.836 13.9368L21.2214 1.10879Z" fill="black"/>
</svg>
