<?xml version="1.0" encoding="UTF-8"?>
<svg id="Layer_1" xmlns="http://www.w3.org/2000/svg" version="1.1" viewBox="0 0 1267 362">
  <!-- Generator: Adobe Illustrator 29.7.1, SVG Export Plug-In . SVG Version: 2.1.1 Build 8)  -->
  <defs>
    <style>
      .st0 {
        fill: #fff;
      }

      .st1 {
        fill: #e62415;
      }
    </style>
  </defs>
  <path class="st0" d="M126.8-471.7c56.97-4.45,108.84,13.86,147.13,56.34l-37.57,37.29c-2.38.41-13.27-11.72-15.89-13.9-62.72-52.34-160.11-27.52-181.4,53.55-21.19,80.72,33.13,160.52,120.3,150.3,30.67-3.6,56.5-19.68,77.13-41.85l37.43,37.62C196.13-101.83,44.78-117.98-4.86-229.64c-45.66-102.71,14.5-232.91,131.66-242.06Z"/>
  <path class="st0" d="M1095-482v125c29.48-23.04,74.86-24.26,105.72-3.22,32.04,21.84,37.01,54.28,38.32,90.68,1.62,44.82-1.29,90.63-.04,135.54h-58v-155.5c0-11.99-8.25-26.08-19.73-30.27-30.3-11.07-66.27,13.76-66.27,46.27v139.5h-57v-348h57Z"/>
  <path class="st0" d="M465-370v138.5c0,24.16,16.54,44.01,41.33,44.12,35.16.16,59.9-22.5,59.66-58.13v-124.49h57.01v236h-57v-18c-6.12,2.88-11.7,6.95-18.02,9.48-66.5,26.67-137.14-11.24-139.97-84.99v-142.49s56.99,0,56.99,0Z"/>
  <path class="st0" d="M904.79-374.71c38.33-2.32,76.6,11.55,103.13,39.34l-37.57,37.21c-9.71-6.05-16.64-13.52-27.83-17.87-39.89-15.51-88.71,2.08-97.08,46.97-12.32,66.06,61.41,104.34,113.03,66.03,2.43-1.8,9.47-9.48,11.83-8.87l38.68,37.39c-28.12,28.06-65.51,42.18-105.47,39.49-149.41-10.05-153.92-230.32,1.28-239.7Z"/>
  <polygon class="st0" points="737 -454 737 -371.5 738.5 -370 780 -370 780 -315 737 -315 737 -134 680 -134 680 -315 637 -315 637 -370 678.5 -370 680 -371.5 680 -454 737 -454"/>
  <rect class="st0" x="309" y="-483" width="59" height="348"/>
  <path class="st1" d="M906.78-294.72c55.24-6.34,62.64,76.46,8.71,80.7-54.77,4.3-61.95-74.59-8.71-80.7Z"/>
</svg>